# xmcd CD database file
#
# Track frame offsets:
#	150
#	11421
#	23012
#	41511
#	51743
#	63485
#	73732
#	90698
#	101926
#	116880
#	126418
#	139084
#	148988
#	160098
#	176263
#	184627
#	197273
#	209210
#
# Disc length: 2886 seconds
#
# Revision: 0
# Processed by: cddbd v1.5.2PL0 Copyright (c) Steve Scherf et al.
# Submitted via: CDex 1.51
#
DISCID=130b4412
DTITLE=Zespol Harmonijek Ustnych - ANIMATO
DYEAR=1998
DGENRE=Harmonica sound
TTITLE0=Chattanooga choo choo (H. Warren)
TTITLE1=Walc cis-Moll op. 64 nr. 2 (F. Chopin)
TTITLE2=My Way (P. Anka)
TTITLE3=Taniec z szablami (A. Chaczaturian)
TTITLE4=Largo z koncertu podwojnego d-moll (J.S. Bach)
TTITLE5=Moonlight serenade (G. Miller)
TTITLE6=Gzie sie podzialy tamte prywatki (P. Poznakowski)
TTITLE7=One way ticket (H. Hunter)
TTITLE8=Koncerto a-moll op. 3 nr 6 I. Allegro (A. Vivaldi)
TTITLE9=Koncerto a-moll op. 3 nr 6 II. Largo (A. Vivaldi)
TTITLE10=Koncerto a-moll op. 3 nr 6 III. Presto (A. Vivaldi)
TTITLE11=Summertime (G. Gershwin)
TTITLE12=What a wonderfull world (B. Thiele)
TTITLE13=Takie tango (R. Lipko)
TTITLE14=The mean I love (G. Gershwin)
TTITLE15=I do, I do, I do, I do, I do (B. Anderson, U. Ulvaeus)
TTITLE16=Amico sole (R. Casadei)
TTITLE17=Wiazanka melodii country (Wiazanka mel. luddwych)
EXTD=YEAR: 1998
EXTT0=
EXTT1=
EXTT2=
EXTT3=
EXTT4=
EXTT5=
EXTT6=
EXTT7=
EXTT8=
EXTT9=
EXTT10=
EXTT11=
EXTT12=
EXTT13=
EXTT14=
EXTT15=
EXTT16=
EXTT17=
PLAYORDER=
